# xmcd CD database file
#
# Track frame offsets:
#	150
#	12890
#	35060
#	49742
#	66155
#	87345
#	109400
#	121750
#	144085
#	166325
#	176045
#	187805
#	200975
#	219357
#	236210
#	249422
#	264425
#	271492
#	287137
#	300592
#	310282
#	326577
#	343075
#
# Disc length: 4800 seconds
#
# Revision: 2
# Processed by: cddbd v1.5.2PL0 Copyright (c) Steve Scherf et al.
# Submitted via: CDex 1.70beta3
#
DISCID=5812be17
DTITLE=Various Artist - Free Soul MPS
DYEAR=2002
DGENRE=Rock
TTITLE0=Singers Unlimited/You Are the Sunshine of My Life
TTITLE1=Knut Kiesewetter Train/Roll on the Left Side
TTITLE2=Ella Fitzgerald/Sunshine of Your Love
TTITLE3=Dave Set Pike/Mathar
TTITLE4=Joanne Grauer/See You Later
TTITLE5=Francy Boland Big Band - Kenny Clarke/Un Gr将ェo de Areia
TTITLE6=Peter Helbolzheimer/Nica's Dream
TTITLE7=Oscar Peterson Trio/The Windmills of Your Mind
TTITLE8=Orchister Erwin Lehn/Funf Z将Vier
TTITLE9=Ed将Lobo/Upa Neguinho
TTITLE10=George Duke/Someday
TTITLE11=Ernest Ranglin/Love and Happiness
TTITLE12=Dave Set Pike/Big Schlepp
TTITLE13=Jonny Teupen/Love Me
TTITLE14=Third Wave/Cantaloupe Island
TTITLE15=Wolfgang Dauner/Take Off Your Clothes to Feel the Setting Sun
TTITLE16=Horst Jankowski/Speech Craft
TTITLE17=Baden Powell/Blues a Volonte
TTITLE18=Charly Antolini/Scratches
TTITLE19=Bara Rokovic/J.B.W.
TTITLE20=Monty Alexander/Monticello
TTITLE21=Novi Singers/Kulfon
TTITLE22=Yancy K将モr将モssy/I'm on My Way
EXTD=YEAR: 2002
EXTT0=
EXTT1=
EXTT2=
EXTT3=
EXTT4=
EXTT5=
EXTT6=
EXTT7=
EXTT8=
EXTT9=
EXTT10=
EXTT11=
EXTT12=
EXTT13=
EXTT14=
EXTT15=
EXTT16=
EXTT17=
EXTT18=
EXTT19=
EXTT20=
EXTT21=
EXTT22=
PLAYORDER=
